<?xml version="1.0" standalone="no"?>
<!DOCTYPE svg PUBLIC "-//W3C//DTD SVG 20010904//EN"
 "http://www.w3.org/TR/2001/REC-SVG-20010904/DTD/svg10.dtd">
<svg version="1.0" xmlns="http://www.w3.org/2000/svg"
 width="654.000000pt" height="298.000000pt" viewBox="0 0 654.000000 298.000000"
 preserveAspectRatio="xMidYMid meet">
<metadata>
Created by potrace 1.16, written by Peter Selinger 2001-2019
</metadata>
<g transform="translate(0.000000,298.000000) scale(0.100000,-0.100000)"
fill="#000000" stroke="none">
<path d="M5644 2628 c-15 -18 -37 -56 -50 -84 -42 -95 -156 -388 -194 -499
-21 -60 -52 -150 -70 -199 -17 -49 -29 -95 -26 -103 3 -7 -6 -43 -19 -79 -24
-64 -32 -114 -18 -114 3 0 15 8 26 18 19 17 19 16 12 -15 -9 -45 13 -44 53 1
l30 34 11 -25 c7 -15 16 -22 21 -17 21 22 153 382 144 395 -5 8 76 232 82 226
2 -2 -12 -50 -32 -108 -19 -57 -36 -120 -38 -139 -1 -19 -6 -48 -9 -65 -8 -31
63 106 122 235 18 41 71 160 118 264 71 158 84 194 77 215 -8 21 -16 26 -44
26 -27 0 -36 5 -40 20 -4 12 -16 21 -30 23 -14 2 -29 8 -34 13 -21 20 -64 9
-92 -23z"/>
<path d="M4807 2511 c-20 -10 -40 -15 -43 -10 -13 22 -57 7 -101 -33 -57 -54
-332 -419 -470 -627 -102 -153 -109 -160 -172 -177 -7 -2 -10 -11 -7 -19 4
-10 -9 -26 -37 -46 -38 -28 -67 -69 -49 -69 5 0 16 -6 26 -13 17 -13 15 -20
-39 -118 -36 -66 -58 -119 -60 -144 -2 -22 -13 -62 -24 -88 -35 -81 -23 -103
23 -45 20 26 28 30 38 20 19 -19 53 -14 77 12 19 21 26 23 42 13 15 -9 24 -8
45 9 25 18 150 202 194 285 17 33 24 37 92 51 40 9 129 30 197 47 68 18 125
31 126 29 1 -2 0 -59 -4 -128 -9 -183 4 -402 28 -475 17 -55 19 -57 23 -30 3
19 6 8 8 -30 l3 -60 12 70 c14 81 15 79 44 -75 12 -63 25 -118 29 -122 4 -4 5
81 3 188 -2 107 1 194 5 193 32 -5 34 3 34 116 0 65 4 115 9 115 6 0 12 -15
14 -32 4 -31 4 -30 6 7 3 76 39 327 48 334 4 4 35 15 68 25 33 10 78 28 100
40 l40 21 -60 5 -60 5 95 27 c52 15 112 30 133 34 25 4 35 10 29 16 -6 6 -47
6 -113 -1 -57 -6 -131 -13 -164 -16 l-60 -5 40 14 40 14 -38 1 c-34 1 -37 3
-32 24 14 62 65 455 65 505 0 77 -20 106 -66 99 -28 -5 -34 -3 -34 12 0 21
-30 51 -51 51 -8 0 -31 -9 -52 -19z m-92 -508 c-24 -206 -23 -202 -48 -208
-55 -13 -222 -43 -225 -40 -2 1 44 67 100 146 144 200 181 249 186 245 2 -3
-4 -67 -13 -143z"/>
<path d="M3835 2383 c-117 -16 -322 -110 -471 -216 -98 -70 -221 -187 -235
-224 -34 -89 32 -224 125 -257 11 -4 76 -18 146 -31 139 -27 232 -56 237 -72
6 -17 -55 -81 -117 -123 -122 -83 -322 -170 -450 -195 -182 -36 -191 -41 -155
-92 19 -27 15 -29 -69 -44 -55 -9 -65 -14 -54 -24 26 -24 99 -45 158 -45 61 0
83 -12 53 -29 -33 -18 -2 -26 100 -26 116 0 171 17 355 106 271 134 442 293
442 414 0 85 -92 202 -205 262 -33 17 -103 43 -155 58 -52 15 -97 29 -99 31
-15 14 94 92 254 182 121 68 206 102 253 102 88 0 113 61 68 163 -29 67 -59
77 -181 60z"/>
<path d="M1702 2360 c-230 -60 -554 -320 -731 -585 -59 -89 -141 -240 -141
-261 0 -3 21 22 47 57 58 80 126 159 135 159 4 0 -13 -29 -38 -65 -92 -131
-183 -371 -184 -480 0 -50 21 -128 48 -182 20 -39 77 -93 98 -93 5 0 31 -18
57 -39 72 -60 120 -74 224 -69 107 6 184 31 296 97 276 163 540 473 661 775
l43 107 27 -55 c47 -97 62 -104 291 -152 143 -29 205 -50 205 -68 0 -40 -134
-136 -301 -215 -125 -59 -207 -87 -314 -105 -90 -16 -135 -31 -135 -45 0 -5 5
-22 10 -37 14 -35 4 -41 -77 -50 -35 -3 -65 -10 -68 -14 -15 -24 98 -60 187
-60 67 0 84 -10 51 -29 -32 -17 -2 -26 90 -26 107 0 180 23 362 110 201 97
370 227 431 331 52 89 23 199 -76 286 -58 51 -94 69 -215 108 -55 17 -111 36
-125 41 l-24 11 24 19 c135 109 426 263 491 261 46 -2 95 20 103 45 13 41 -28
157 -60 172 -34 15 -99 14 -181 -3 -187 -40 -484 -213 -625 -364 l-48 -51 0
72 c0 103 -45 226 -103 285 -55 57 -128 98 -208 117 -84 19 -138 18 -227 -5z
m210 -221 c82 -43 78 -205 -11 -401 -123 -273 -444 -588 -654 -644 -61 -17
-65 -17 -103 2 -128 63 -47 343 191 659 108 144 129 183 80 151 -14 -9 -25
-12 -25 -8 0 17 89 92 135 114 25 12 45 26 45 31 0 4 -10 1 -22 -7 -31 -22
-55 -22 -38 0 32 38 158 92 264 114 44 9 110 3 138 -11z"/>
<path d="M5168 1374 c-52 -28 -99 -135 -113 -257 -5 -47 -4 -58 10 -63 9 -4
24 1 36 12 15 13 22 15 31 6 18 -18 52 -15 79 7 16 12 34 17 51 14 19 -4 33 2
50 19 28 27 82 186 72 211 -7 19 -46 32 -68 24 -8 -3 -16 2 -19 14 -4 14 -14
19 -40 19 -20 0 -41 2 -49 5 -7 2 -25 -2 -40 -11z"/>
<path d="M3810 994 c-589 -36 -1244 -135 -1745 -264 -66 -17 -138 -36 -160
-41 -95 -23 -428 -140 -444 -155 -3 -2 11 -2 30 1 41 7 36 4 -116 -61 -111
-47 -141 -63 -95 -50 14 4 102 27 195 51 231 60 286 74 310 81 13 4 17 3 10
-4 -5 -5 -86 -33 -180 -62 -93 -29 -210 -68 -260 -87 -113 -44 -340 -151 -333
-158 3 -3 56 14 119 39 194 74 423 150 414 136 -2 -4 -31 -18 -62 -30 -78 -31
-90 -44 -23 -24 159 48 640 172 826 214 484 109 1130 214 1629 264 83 9 211
22 285 30 74 8 176 18 225 22 l90 8 -95 9 c-52 5 -171 10 -265 10 -146 1 -159
2 -95 9 41 5 140 18 220 30 80 11 168 24 197 27 29 4 55 10 59 14 12 12 -497
5 -736 -9z"/>
</g>
</svg>
